<svg width="64" height="53" viewBox="0 0 64 53" fill="none" xmlns="http://www.w3.org/2000/svg">
<g clip-path="url(#clip0)">
<path d="M31.891 38.3091C49.506 38.3091 63.786 41.4941 63.786 45.421C63.786 49.348 49.507 52.5321 31.891 52.5321C14.28 52.5321 0 49.348 0 45.421C0 41.4941 14.28 38.3091 31.891 38.3091Z" fill="#E7E6E6"/>
<path d="M31.8948 51.1119C45.9847 51.1119 57.4068 48.5651 57.4068 45.4235C57.4068 42.2819 45.9847 39.7351 31.8948 39.7351C17.8049 39.7351 6.38281 42.2819 6.38281 45.4235C6.38281 48.5651 17.8049 51.1119 31.8948 51.1119Z" fill="#BCBDBF"/>
<path d="M58.2996 23.7258C58.2996 16.0408 46.4806 21.2555 31.8896 21.2555C17.2946 21.2555 5.47461 16.0408 5.47461 23.7258C5.47461 31.4033 17.2936 46.5348 31.8886 46.5348C46.4836 46.5348 58.2996 31.4033 58.2996 23.7258Z" fill="#E7E6E6"/>
<path d="M24.6565 21.5395C24.7345 21.2994 24.8355 21.1155 24.9325 20.9043C13.7235 19.8791 5.48047 17.3136 5.48047 23.7274C5.48047 31.405 17.3035 46.5365 31.8945 46.5365C33.3345 46.5365 34.7315 46.3526 36.1095 46.0818C26.9135 39.9976 22.7605 27.5757 24.6565 21.5395" fill="#CFCFD0"/>
<path d="M58.1504 22.9217C58.1504 27.6271 46.3964 31.4439 31.9004 31.4439C17.4044 31.4439 5.65039 27.6271 5.65039 22.9217C5.65039 18.2179 17.4044 14.4036 31.9004 14.4036C46.3964 14.4036 58.1504 18.2179 58.1504 22.9217" fill="#BCBDBF"/>
<path d="M31.8949 15.8917C46.0349 15.8917 57.4958 19.3723 57.4958 23.6653C57.4958 27.96 46.0349 31.4414 31.8949 31.4414C17.7649 31.4414 6.29785 27.96 6.29785 23.6653C6.29785 19.3723 17.7589 15.8917 31.8949 15.8917" fill="#04A69C"/>
<path d="M40.2505 21.1653C45.8735 21.8741 51.6345 22.983 57.3805 24.3626C57.4465 24.1341 57.4925 23.9014 57.4925 23.6662C57.4925 19.3732 46.0315 15.8926 31.8955 15.8926C18.9515 15.8926 8.27948 18.8125 6.56348 22.6012C16.7025 18.9177 32.9975 20.2502 40.2525 21.1653" fill="#089083"/>
<path d="M9.78906 23.6662C9.78906 23.6662 10.4861 19.2656 22.0371 18.6809C22.0371 18.6809 13.7241 22.212 13.8131 24.3577C13.8131 24.3602 10.9401 26.8934 9.79306 23.6637" fill="white"/>
<path d="M54.7288 25.3216C54.7288 25.3216 53.9818 28.8486 39.7598 29.6246C39.7598 29.6246 49.9138 26.587 49.7508 24.8753C49.7508 24.8753 53.2188 22.7784 54.7288 25.3216" fill="white"/>
<path d="M25.3369 18.6842C25.3369 18.6842 35.4599 16.2686 45.7619 18.6842L42.5509 19.5272C42.5509 19.5264 36.9809 16.4193 25.3369 18.6842" fill="white"/>
<path d="M27.0399 30.557C26.7639 29.8382 26.0589 28.745 24.9609 28.8577C23.8829 28.9695 23.5179 30.4286 23.3309 31.1143C22.9769 32.436 23.0269 33.8769 23.0189 35.2202C23.0109 36.8226 23.1399 38.4242 23.3029 40.02C23.3689 40.6452 24.5599 40.6518 24.4939 40.02C24.2999 38.1774 24.1859 36.3356 24.2139 34.4873C24.2299 33.6235 24.2729 32.7515 24.3779 31.8911C24.4359 31.3975 24.5919 30.9238 24.7909 30.4593C25.1449 29.6055 25.7169 30.3516 25.8959 30.8178C26.1329 31.4174 27.2729 31.1615 27.0399 30.557" fill="#405967"/>
<path d="M23.1596 46.756C22.2606 47.8872 20.2446 48.1099 18.6686 47.2462C17.0846 46.3858 16.5316 44.766 17.4346 43.6331L21.8286 39.6689C22.7316 38.5376 23.4516 38.3811 25.0316 39.2432C26.6116 40.1053 26.5606 40.3976 25.6616 41.5305L23.1596 46.756Z" fill="#BE1E2D"/>
<path d="M44.7717 15.1108C41.9547 12.0832 37.2417 11.4546 33.2407 9.93584C32.8761 9.7657 32.5353 9.56268 32.2247 9.33048C31.3527 8.66302 30.9637 7.79183 31.4697 6.5455C31.9217 5.03417 36.4797 4.028 34.1207 1.86577C33.9103 1.67137 33.6659 1.50416 33.3957 1.36972C32.5717 0.942406 31.4737 0.688172 30.5277 0.390875C30.1689 0.284572 29.8214 0.153833 29.4887 0C30.8587 5.79025 21.1327 5.28592 16.8797 7.35292C16.362 7.52455 15.8609 7.72858 15.3807 7.96325C10.8267 10.21 17.5057 12.3341 24.6277 13.4744L26.0367 13.7328L26.6867 13.8537C27.0177 13.9133 27.3477 13.9763 27.6787 14.0375C28.0137 14.1005 28.3447 14.1634 28.6747 14.2272C29.9477 14.5998 31.3137 14.5998 32.4067 15.0412C32.8537 15.1737 33.2747 15.3153 33.6597 15.4586C34.1627 15.6458 34.5907 15.8313 34.9297 16.0101C35.2987 16.2031 35.5717 16.3878 35.7657 16.5791C37.1787 17.8312 33.3377 19.1123 30.3257 19.9661L30.2827 19.9777C29.5947 20.2005 29.0917 20.3727 28.6447 20.5383C26.7457 21.2472 25.9707 21.8517 26.1307 22.4927C26.1617 22.7362 26.2937 22.9805 26.5317 23.219C26.7647 23.4624 27.1117 23.7009 27.5547 23.9295L30.2627 25.3348L29.9867 23.8301C29.9463 23.5965 29.9826 23.3583 30.0917 23.1403C30.1967 22.9208 30.3717 22.6989 30.6207 22.4761L30.6287 22.4662C31.1107 21.9395 32.0377 21.4095 33.4537 20.8389C33.8627 20.675 34.3027 20.5102 34.7967 20.3363C35.5397 20.0878 36.3337 19.8336 37.1007 19.5868C40.2767 18.5732 43.5307 17.5339 44.5657 16.348C44.9087 15.9538 45.0067 15.5431 44.7717 15.1108" fill="#E6E7E8"/>
</g>
<defs>
<clipPath id="clip0">
<rect width="64" height="53" fill="white"/>
</clipPath>
</defs>
</svg>
